<svg width="92" height="93" viewBox="0 0 92 93" fill="none" xmlns="http://www.w3.org/2000/svg">
    <rect y="0.561523" width="91.5618" height="91.5618" rx="45.7809" fill="#5865F2"/>
    <path d="M62.4748 31.3352C67.87 39.3238 70.5344 48.3347 69.5384 58.7084C69.5342 58.7523 69.5115 58.7926 69.4757 58.819C65.39 61.8403 61.4316 63.6739 57.5287 64.8898C57.4983 64.8991 57.4657 64.8986 57.4357 64.8884C57.4056 64.8781 57.3794 64.8587 57.3609 64.8327C56.4592 63.5692 55.6399 62.2372 54.9221 60.8384C54.8809 60.756 54.9186 60.6568 55.0033 60.6243C56.3045 60.1306 57.5418 59.5389 58.7319 58.8383C58.8256 58.7829 58.8316 58.6476 58.745 58.5827C58.4924 58.3939 58.2422 58.1954 58.0028 57.9969C57.958 57.9603 57.8977 57.953 57.8469 57.9777C50.1205 61.5709 41.6566 61.5709 33.8389 57.9777C33.7881 57.9549 33.7278 57.9627 33.6842 57.9988C33.4454 58.1972 33.1946 58.3939 32.9444 58.5827C32.8578 58.6476 32.8649 58.7829 32.9593 58.8383C34.1494 59.5256 35.3867 60.1306 36.686 60.6267C36.7702 60.6592 36.8102 60.756 36.7684 60.8384C36.0662 62.239 35.2469 63.571 34.3285 64.8345C34.2885 64.8856 34.2228 64.9091 34.1607 64.8898C30.2763 63.6739 26.3179 61.8403 22.2322 58.819C22.1982 58.7926 22.1737 58.7505 22.1701 58.7066C21.3377 49.7335 23.0342 40.648 29.2271 31.3334C29.2421 31.3088 29.2648 31.2895 29.291 31.2781C32.3383 29.8697 35.6028 28.8335 39.0149 28.2418C39.077 28.2322 39.1391 28.261 39.1713 28.3164C39.5929 29.0681 40.0748 30.0321 40.4009 30.8199C43.9974 30.2666 47.6502 30.2666 51.322 30.8199C51.648 30.0489 52.1132 29.0681 52.533 28.3164C52.5479 28.2889 52.5711 28.2669 52.5992 28.2535C52.6273 28.2401 52.6589 28.236 52.6894 28.2418C56.1033 28.8353 59.3679 29.8715 62.4127 31.2781C62.4395 31.2895 62.4616 31.3088 62.4748 31.3352ZM42.2293 48.3961C42.2669 45.7434 40.3465 43.5484 37.9359 43.5484C35.5449 43.5484 33.643 45.7242 33.643 48.3961C33.643 51.0674 35.5825 53.2431 37.9359 53.2431C40.3274 53.2431 42.2293 51.0674 42.2293 48.3961ZM58.1025 48.3961C58.1401 45.7434 56.2197 43.5484 53.8097 43.5484C51.4181 43.5484 49.5162 45.7242 49.5162 48.3961C49.5162 51.0674 51.4557 53.2431 53.8097 53.2431C56.2197 53.2431 58.1025 51.0674 58.1025 48.3961Z"
          fill="white"/>
</svg>
