<svg width="92" height="92" viewBox="0 0 92 92" fill="none" xmlns="http://www.w3.org/2000/svg">
    <rect width="92" height="92" rx="46" fill="#5865F2"/>
    <path d="M62.8 31a40.7 40.7 0 017 27.5 39.6 39.6 0 01-12.2 6c-.9-1.2-1.7-2.5-2.4-4v-.1c1.4-.5 2.6-1.1 3.8-1.8v-.3a19 19 0 01-.9-.6 28.2 28.2 0 01-24.3 0l-.7.6v.3c1.2.6 2.5 1.3 3.8 1.8v.2a28.7 28.7 0 01-2.6 4 39.7 39.7 0 01-12-6.2A41 41 0 0129.4 31a39.3 39.3 0 0110-3l1.2 2.5c3.6-.6 7.3-.6 11 0a28 28 0 011.3-2.6 39.4 39.4 0 019.9 3.1zM42.4 48c0-2.6-1.9-4.8-4.3-4.8s-4.3 2.2-4.3 4.9c0 2.6 2 4.8 4.3 4.8 2.4 0 4.3-2.2 4.3-4.8zm16 0c0-2.6-2-4.8-4.3-4.8-2.4 0-4.3 2.2-4.3 4.9 0 2.6 1.9 4.8 4.3 4.8s4.3-2.2 4.3-4.8z"
          fill="#fff"/>
</svg>
