<svg width="92" height="92" viewBox="0 0 92 92" fill="none" xmlns="http://www.w3.org/2000/svg">
    <rect width="92" height="92" rx="46" fill="url(#paint0_linear_1727_3676)"/>
    <path d="M38.3 46.1a7.7 7.7 0 1115.4 0 7.7 7.7 0 01-15.4 0zm-4.1 0a11.8 11.8 0 1023.6 0 11.8 11.8 0 00-23.6 0zm21.3-12.3a2.8 2.8 0 102.8-2.7 2.8 2.8 0 00-2.8 2.7zm-18.8 31c-2.2 0-3.4-.4-4.3-.7-1-.5-1.8-1-2.6-1.8a7.1 7.1 0 01-1.7-2.6c-.3-.8-.7-2-.8-4.3-.1-2.4-.2-3.1-.2-9.3 0-6.1 0-6.9.2-9.3 0-2.2.5-3.4.8-4.3.4-1 .9-1.8 1.7-2.6a7 7 0 012.6-1.7c.9-.3 2-.7 4.3-.8 2.4-.1 3.2-.2 9.3-.2 6.2 0 6.9 0 9.3.2 2.3 0 3.5.5 4.3.8 1 .4 1.8.9 2.6 1.7.8.8 1.3 1.6 1.8 2.6.3.9.6 2 .7 4.3.2 2.4.2 3.2.2 9.3 0 6.2 0 6.9-.2 9.3 0 2.3-.4 3.5-.7 4.3-.5 1-1 1.8-1.8 2.6s-1.5 1.3-2.6 1.8c-.8.3-2 .7-4.3.8H36.7zm-.2-41.6c-2.4.1-4.1.5-5.6 1.1-1.5.6-2.8 1.4-4 2.7-1.3 1.2-2.1 2.5-2.7 4-.6 1.5-1 3.2-1 5.6-.2 2.5-.2 3.3-.2 9.5l.1 9.5c.2 2.5.5 4.1 1.1 5.6.6 1.5 1.4 2.8 2.7 4 1.2 1.4 2.5 2.1 4 2.7 1.5.6 3.2 1 5.6 1.1l9.5.1 9.5-.1c2.5-.1 4.1-.5 5.6-1 1.5-.7 2.8-1.4 4-2.7 1.3-1.3 2.1-2.6 2.7-4.1.6-1.5 1-3.1 1-5.6.2-2.4.2-3.2.2-9.5l-.1-9.5c-.1-2.4-.5-4.1-1-5.6-.7-1.5-1.5-2.8-2.7-4-1.3-1.3-2.6-2.1-4.1-2.7-1.5-.6-3.1-1-5.6-1C53 23 52.3 23 46 23l-9.5.1z"
          fill="#fff"/>
    <defs>
        <linearGradient id="paint0_linear_1727_3676" x1="90.2" y1="92" x2="-1.8" y2="0" gradientUnits="userSpaceOnUse">
            <stop stop-color="#FBE18A"/>
            <stop offset=".2" stop-color="#FCBB45"/>
            <stop offset=".4" stop-color="#F75274"/>
            <stop offset=".5" stop-color="#D53692"/>
            <stop offset=".7" stop-color="#8F39CE"/>
            <stop offset="1" stop-color="#5B4FE9"/>
        </linearGradient>
    </defs>
</svg>
