<svg xmlns="http://www.w3.org/2000/svg" width="85" height="80" fill="none">
    <path fill="#090909"
          d="M.828 57.872v-45.57c0-2.506 4.174-7.693 9.87-7.72h55.917c1.734 0 4.33.588 6.248 1.95 2.133 1.515 3.503 3.906 3.503 5.77V56.36c.49 4.285-4.054 9.153-7.84 9.313-3.787.16-26.586 0-26.586 0L19.295 80V66.35c.003-.355-.092-.49-.398-.637-.306-.147-4.935-.04-9.273-.04s-8.796-4.219-8.796-7.8Z"/>
    <path fill="url(#a)" stroke="url(#b)" stroke-width=".637"
          d="M26.867 76.687 49.434 62.41h.163l.73.006a3662.152 3662.152 0 0 0 10.887.053c6.168.02 12.825.02 14.727-.06 2.012-.085 4.17-1.408 5.75-3.218 1.58-1.808 2.647-4.174 2.395-6.431V8.72c0-1.995-1.444-4.473-3.636-6.03C78.468 1.283 75.803.683 74.017.683H18.1c-2.946.014-5.486 1.361-7.285 3.014-.9.827-1.62 1.737-2.119 2.606-.494.864-.783 1.714-.783 2.419v45.57c0 1.913 1.182 3.942 2.876 5.479 1.698 1.54 3.97 2.64 6.238 2.64 1.4 0 2.83-.012 4.136-.022.718-.006 1.398-.011 2.014-.014a95.907 95.907 0 0 1 2.149.007c.27.005.487.013.644.023a2.657 2.657 0 0 1 .21.022c.122.06.154.097.167.116.012.02.034.068.033.222v14.232l.488-.309Z"/>
    <mask id="c" width="60" height="56" x="16" y="7" maskUnits="userSpaceOnUse" style="mask-type:luminance">
        <path fill="#fff" d="M16.016 7.447h59.967v55.466H16.016V7.447Z"/>
    </mask>
    <g mask="url(#c)">
        <path fill="url(#d)"
              d="M28.416 23.54v9.6a.934.934 0 1 1-1.867 0v-9.6h-9.6a.934.934 0 0 1 0-1.868h9.6v-9.6a.934.934 0 1 1 1.867 0v9.6h9.6a.934.934 0 1 1 0 1.868h-9.6Zm43.432-1.302c-.64.607-2.413 2.133-5.036 3.193-1.591.644-2.909.878-4.183 1.104-1.498.267-2.912.518-4.704 1.402a15.233 15.233 0 0 0-2.986 1.941c.977.277 1.976.468 2.976.571a19.657 19.657 0 0 0 6.188-.405.311.311 0 0 1 .332.471 18.02 18.02 0 0 1-4.831 5.062 18.415 18.415 0 0 1-5.223 2.53 13.337 13.337 0 0 1-2.711.532c-.575.063-1.118.122-1.86.342-1.56.463-3.128 1.324-5.713 4.018-2.8 2.919-4.328 5.438-6.261 8.628-1.087 1.792-2.318 3.823-3.987 6.284a110.544 110.544 0 0 1-3.491 4.864.31.31 0 0 1-.554-.242 78.91 78.91 0 0 1 2.853-11.276c1.097-3.29 3.379-10.137 7.95-17.642 5.674-9.32 12.92-16.422 21.54-21.112 4.089-2.226 8.555-3.921 13.274-5.04a.312.312 0 0 1 .381.267c.345 2.908.65 10.143-3.954 14.508Z"/>
    </g>
    <defs>
        <linearGradient id="a" x1="11.987" x2="106.099" y1="-35.923" y2="-14.193" gradientUnits="userSpaceOnUse">
            <stop stop-color="#23F9FF"/>
            <stop offset="1" stop-color="#AAD0E9"/>
        </linearGradient>
        <linearGradient id="b" x1="15.884" x2="74.774" y1="7.329" y2="85.629" gradientUnits="userSpaceOnUse">
            <stop offset=".283" stop-color="#0D171D"/>
            <stop offset="1" stop-color="#22454B"/>
        </linearGradient>
        <linearGradient id="d" x1="22.088" x2="64.362" y1="12.108" y2="72.771" gradientUnits="userSpaceOnUse">
            <stop offset=".314" stop-color="#0D171D"/>
            <stop offset=".659" stop-color="#22454B"/>
        </linearGradient>
    </defs>
</svg>
