<svg width="46" height="44" viewBox="0 0 46 44" fill="none" xmlns="http://www.w3.org/2000/svg">
    <path d="M0 31.956V7.154C0 5.789 2.264 2.966 5.354 2.95h30.329c.94 0 2.349.32 3.389 1.062 1.157.824 1.9 2.126 1.9 3.14v23.98c.266 2.333-2.2 4.982-4.253 5.07-2.054.086-14.42 0-14.42 0L10.016 44v-7.43c.002-.194-.05-.267-.216-.347-.166-.08-2.676-.022-5.03-.022-2.352 0-4.77-2.296-4.77-4.245z"
          fill="#090909"/>
    <path d="M13.706 42.05v.579l.489-.31 12.203-7.749h.046l.396.003a2050.716 2050.716 0 005.906.03c3.343.01 6.958.01 7.994-.034 1.146-.048 2.35-.799 3.223-1.801.871-1 1.474-2.324 1.335-3.603V5.202c0-1.145-.818-2.533-2.034-3.4-1.104-.787-2.58-1.12-3.573-1.12H9.36c-1.643.007-3.055.761-4.05 1.679a6.2 6.2 0 00-1.177 1.453c-.274.481-.444.97-.444 1.388 0 0 0 0 0 0v24.803c0 1.098.672 2.238 1.608 3.09.94.856 2.206 1.474 3.481 1.474.76 0 1.538-.006 2.246-.011l1.091-.008c.471-.002.87-.002 1.162.004a7.554 7.554 0 01.42.02.33.33 0 01.008.004v7.471zm.009-7.474a.083.083 0 010 0z"
          fill="url(#paint0_linear_780_1022)" stroke="url(#paint1_linear_780_1022)" stroke-width=".637"/>
    <mask id="a" style="mask-type:luminance" maskUnits="userSpaceOnUse" x="8" y="4" width="33" height="31">
        <path d="M8.246 4.518h32.526v30.189H8.246V4.517z" fill="#fff"/>
    </mask>
    <g mask="url(#a)">
        <path d="M14.972 13.276v5.226a.507.507 0 11-1.013 0v-5.226H8.753a.507.507 0 010-1.016h5.206V7.035a.507.507 0 111.013 0v5.225h5.207a.507.507 0 010 1.016h-5.207zm23.557-.708a8.994 8.994 0 01-2.731 1.738c-.863.35-1.578.478-2.269.6-.812.146-1.58.283-2.552.764a8.257 8.257 0 00-1.619 1.056c.53.15 1.072.255 1.614.311.283.03.865.072 1.598.03a10.634 10.634 0 001.759-.25.17.17 0 01.18.256 9.795 9.795 0 01-2.62 2.755 9.976 9.976 0 01-2.834 1.377c-.673.203-1.096.25-1.47.29a5.121 5.121 0 00-1.01.186c-.845.252-1.695.72-3.098 2.187-1.518 1.588-2.347 2.96-3.396 4.696-.59.975-1.257 2.08-2.162 3.42a60.004 60.004 0 01-1.894 2.648.168.168 0 01-.3-.132 43.061 43.061 0 011.548-6.137c.594-1.791 1.832-5.518 4.311-9.603 3.078-5.072 7.009-8.938 11.683-11.491a29.025 29.025 0 017.2-2.743.169.169 0 01.207.145c.188 1.583.353 5.521-2.145 7.897z"
              fill="url(#paint2_linear_780_1022)"/>
    </g>
    <defs>
        <linearGradient id="paint0_linear_780_1022" x1="6.045" y1="-19.097" x2="57.11" y2="-7.347"
                        gradientUnits="userSpaceOnUse">
            <stop stop-color="#23F9FF"/>
            <stop offset="1" stop-color="#AAD0E9"/>
        </linearGradient>
        <linearGradient id="paint1_linear_780_1022" x1="8.159" y1="4.445" x2="40.243" y2="46.956"
                        gradientUnits="userSpaceOnUse">
            <stop offset=".283" stop-color="#0D171D"/>
            <stop offset="1" stop-color="#22454B"/>
        </linearGradient>
        <linearGradient id="paint2_linear_780_1022" x1="11.54" y1="7.054" x2="34.577" y2="39.997"
                        gradientUnits="userSpaceOnUse">
            <stop offset=".314" stop-color="#0D171D"/>
            <stop offset=".659" stop-color="#22454B"/>
        </linearGradient>
    </defs>
</svg>
