<svg xmlns="http://www.w3.org/2000/svg" width="1080" height="1029" fill="none"><g filter="url(#a)"><path fill="url(#b)" d="M75 570.383V105c0-31.5 52.442-96.66 124-97h702.5c21.781 0 54.401 7.381 78.499 24.5C1006.79 51.535 1024 81.571 1024 105v553.5c6.17 53.841-50.929 114.992-98.5 117-47.571 2.008-334 0-334 0L307 955.5V784c.042-4.458-1.157-6.157-5.001-8-3.844-1.843-62-.5-116.499-.5-54.499 0-110.5-53-110.5-98V570.383Z"/><path stroke="url(#c)" stroke-width="8" d="M199 4h-.019c-37.011.176-68.928 17.105-91.522 37.87C96.151 52.262 87.094 63.69 80.84 74.616 74.633 85.462 71 96.147 71 105v572.5c0 24.044 14.844 49.538 36.126 68.838C128.47 765.695 157.012 779.5 185.5 779.5c17.578 0 35.56-.14 51.957-.267 9.027-.07 17.573-.137 25.308-.174 10.914-.053 20.204-.048 26.996.085 3.401.066 6.126.163 8.094.296.989.067 1.73.139 2.244.212.191.027.319.049.395.064 1.534.759 1.936 1.213 2.092 1.458.154.24.432.844.414 2.789V962.764l6.139-3.884 283.507-179.372 2.055.014 9.174.06a43509.873 43509.873 0 0 0 136.773.671c77.493.251 161.118.252 185.021-.756 25.27-1.067 52.379-17.682 72.245-40.428 19.836-22.715 33.246-52.443 30.086-80.794V105c0-25.072-18.15-56.203-45.684-75.761C957.412 11.549 923.939 4 901.5 4H199Z"/></g><mask id="d" width="755" height="697" x="172" y="89" maskUnits="userSpaceOnUse" style="mask-type:luminance"><path fill="#fff" stroke="#fff" stroke-width=".457" d="M173.035 89.229h752.929v696.373H173.035V89.229Z"/></mask><g mask="url(#d)"><path fill="url(#e)" stroke="url(#f)" stroke-width=".457" d="M328.6 290.972h-.229v120.836c0 6.354-5.15 11.504-11.502 11.504s-11.503-5.15-11.503-11.504V290.972H184.538c-6.352 0-11.503-5.15-11.503-11.504 0-6.352 5.151-11.502 11.503-11.502H305.366V147.13c0-6.354 5.151-11.504 11.503-11.504s11.502 5.15 11.502 11.504v120.836H449.2c6.354 0 11.502 5.15 11.502 11.502 0 6.354-5.148 11.504-11.502 11.504H328.6Zm333.07 79.684-.335.277.418.119a220.474 220.474 0 0 0 37.429 7.178c6.544.673 20.054 1.654 37.043.68a247.253 247.253 0 0 0 40.769-5.776 3.681 3.681 0 0 1 3.831 1.471l.187-.131-.187.131a3.68 3.68 0 0 1 .089 4.103c-16.166 25.249-36.566 46.621-60.63 63.525-19.634 13.79-42.298 24.773-65.548 31.76-15.573 4.679-25.369 5.742-34.021 6.679-7.223.783-14.058 1.525-23.415 4.304-19.636 5.83-39.368 16.667-71.863 50.535-35.197 36.686-54.398 68.356-78.694 108.429l-.001.003-.018.029c-13.646 22.508-29.109 48.011-50.06 78.919a1387.99 1387.99 0 0 1-43.854 61.09l.182.139-.182-.139a3.676 3.676 0 0 1-4.404 1.147 3.68 3.68 0 0 1-2.152-4.01c8.376-47.744 20.437-95.393 35.845-141.624 13.775-41.334 42.437-127.33 99.842-221.603 71.272-117.046 162.291-206.252 270.53-265.154 51.358-27.949 107.45-49.243 166.721-63.288a3.689 3.689 0 0 1 2.959.563 3.689 3.689 0 0 1 1.546 2.585c2.166 18.256 4.207 50.092-1.519 84.209-5.726 34.118-19.215 70.497-48.093 97.867-8.034 7.615-30.279 26.768-63.197 40.078-19.968 8.072-36.497 11.013-52.503 13.858h-.002c-18.818 3.346-36.615 6.51-59.164 17.634-13.321 6.57-25.924 14.767-37.549 24.413Z"/></g><g filter="url(#g)"><rect width="571" height="277" x="509" y="584" fill="url(#h)" rx="138.5"/><rect width="562" height="268" x="513.5" y="588.5" stroke="url(#i)" stroke-width="9" rx="134"/></g><path fill="#000" d="M583.073 776V667.569h61.429c12.197 0 21.121 2.529 26.773 7.586 5.752 4.958 8.627 11.701 8.627 20.228 0 5.95-1.586 11.106-4.759 15.469-3.074 4.363-7.537 7.14-13.387 8.33v1.041c6.941 1.19 12.197 4.065 15.766 8.627 3.669 4.561 5.504 10.213 5.504 16.956 0 9.817-3.52 17.303-10.561 22.46-6.941 5.156-16.659 7.734-29.153 7.734h-60.239Zm21.865-62.917h35.102c6.445 0 11.056-1.338 13.833-4.016 2.875-2.776 4.313-6.445 4.313-11.006 0-5.057-1.785-8.825-5.354-11.304-3.471-2.479-8.082-3.719-13.833-3.719h-34.061v30.045Zm0 47.448h34.805c7.536 0 12.94-1.537 16.212-4.611 3.372-3.173 5.057-7.189 5.057-12.048 0-10.61-6.693-15.915-20.079-15.915h-35.995v32.574ZM701.013 776V667.569h90.284v17.551h-68.42v27.666h61.132v16.361h-61.132v29.302h68.718V776h-90.582Zm140.888 0v-90.731h-37.482v-17.7h97.126v17.7h-37.928V776h-21.716Zm47.585 0 47.894-108.431h28.26L1013.68 776h-23.795l-9.966-23.352h-56.967L912.987 776h-23.501Zm39.862-39.713h44.473l-16.808-37.78-5.057-12.94h-.892l-5.057 12.94-16.659 37.78Z"/><defs><linearGradient id="b" x1="122.195" x2="1304.55" y1="-455.88" y2="-182.871" gradientUnits="userSpaceOnUse"><stop stop-color="#23F9FF"/><stop offset="1" stop-color="#DBF1FF"/></linearGradient><linearGradient id="c" x1="171.155" x2="911.007" y1="87.512" y2="1071.22" gradientUnits="userSpaceOnUse"><stop offset=".283" stop-color="#0D171D"/><stop offset="1" stop-color="#22454B"/></linearGradient><linearGradient id="e" x1="249.098" x2="780.193" y1="147.574" y2="909.705" gradientUnits="userSpaceOnUse"><stop offset=".283" stop-color="#0D171D"/><stop offset="1" stop-color="#22454B"/></linearGradient><linearGradient id="f" x1="549.468" x2="549.468" y1="89.121" y2="785.665" gradientUnits="userSpaceOnUse"><stop stop-color="#32F9FF" stop-opacity="0"/><stop offset="1" stop-color="#111F25"/></linearGradient><linearGradient id="h" x1="616" x2="1038.33" y1="626.307" y2="826.667" gradientUnits="userSpaceOnUse"><stop stop-color="#95F4FF"/><stop offset="1" stop-color="#CBF2FF"/></linearGradient><linearGradient id="i" x1="531.5" x2="618.063" y1="447.5" y2="954.01" gradientUnits="userSpaceOnUse"><stop offset=".283" stop-color="#0D171D"/><stop offset="1" stop-color="#22454B"/></linearGradient><filter id="a" width="1032.46" height="1028.03" x="0" y="0" color-interpolation-filters="sRGB" filterUnits="userSpaceOnUse"><feFlood flood-opacity="0" result="BackgroundImageFix"/><feColorMatrix in="SourceAlpha" result="hardAlpha" values="0 0 0 0 0 0 0 0 0 0 0 0 0 0 0 0 0 0 127 0"/><feOffset dx="-67" dy="58"/><feComposite in2="hardAlpha" operator="out"/><feColorMatrix values="0 0 0 0 0.0758334 0 0 0 0 0.0758334 0 0 0 0 0.0758334 0 0 0 1 0"/><feBlend in2="BackgroundImageFix" result="effect1_dropShadow_1212_546"/><feBlend in="SourceGraphic" in2="effect1_dropShadow_1212_546" result="shape"/></filter><filter id="g" width="583" height="291" x="497" y="584" color-interpolation-filters="sRGB" filterUnits="userSpaceOnUse"><feFlood flood-opacity="0" result="BackgroundImageFix"/><feColorMatrix in="SourceAlpha" result="hardAlpha" values="0 0 0 0 0 0 0 0 0 0 0 0 0 0 0 0 0 0 127 0"/><feOffset dx="-12" dy="14"/><feComposite in2="hardAlpha" operator="out"/><feColorMatrix values="0 0 0 0 0.0745098 0 0 0 0 0.0745098 0 0 0 0 0.0745098 0 0 0 1 0"/><feBlend in2="BackgroundImageFix" result="effect1_dropShadow_1212_546"/><feBlend in="SourceGraphic" in2="effect1_dropShadow_1212_546" result="shape"/></filter></defs></svg>