<svg width="2250" height="2104" fill="none" xmlns="http://www.w3.org/2000/svg"><path fill="url(#a)" d="M0 0h2250v2104H0z"/><g filter="url(#b)"><path d="M650 1140.38V675c-.001-31.5 52.442-96.659 124-97h702.5c21.78 0 54.4 7.381 78.5 24.5 26.79 19.035 44 49.071 44 72.5v553.5c6.17 53.84-50.93 114.99-98.5 117-47.57 2.01-334 0-334 0l-284.5 180V1354c.042-4.46-1.157-6.16-5.001-8-3.844-1.84-62-.5-116.499-.5-54.499 0-110.5-53-110.5-98v-107.12Z" fill="url(#c)"/><path d="M774 574h-.019c-37.011.176-68.928 17.105-91.522 37.87-11.308 10.392-20.365 21.819-26.619 32.746C649.633 655.462 646 666.147 646 675v572.5c0 24.04 14.844 49.54 36.126 68.84 21.344 19.36 49.886 33.16 78.374 33.16 17.578 0 35.56-.14 51.957-.27 9.027-.07 17.573-.13 25.308-.17 10.914-.05 20.204-.05 26.996.08 3.401.07 6.126.17 8.094.3.989.07 1.73.14 2.244.21.191.03.319.05.395.07 1.534.76 1.936 1.21 2.092 1.45.154.24.432.85.414 2.79V1532.76l6.139-3.88 283.511-179.37 2.05.01c2.11.02 5.21.04 9.17.06 7.93.05 19.31.12 33.11.2 27.59.16 64.89.35 103.67.47 77.49.25 161.12.26 185.02-.75 25.27-1.07 52.38-17.69 72.24-40.43 19.84-22.72 33.25-52.44 30.09-80.79V675c0-25.072-18.15-56.203-45.68-75.761-24.91-17.691-58.38-25.239-80.82-25.239H774Z" stroke="#32F9FF" stroke-width="8"/></g><mask id="d" style="mask-type:luminance" maskUnits="userSpaceOnUse" x="747" y="659" width="755" height="697"><path d="M747.807 659h753.383v696.83H747.807V659Z" fill="#fff"/></mask><g mask="url(#d)"><path d="M903.6 861.199v120.607c0 6.48-5.253 11.733-11.731 11.733s-11.731-5.253-11.731-11.733V861.199h-120.6c-6.478 0-11.731-5.253-11.731-11.733 0-6.478 5.253-11.731 11.731-11.731h120.6V717.128c0-6.48 5.253-11.733 11.731-11.733s11.731 5.253 11.731 11.733v120.607h120.6c6.48 0 11.73 5.253 11.73 11.731 0 6.48-5.25 11.733-11.73 11.733H903.6Zm545.64-16.362c-8.04 7.626-30.31 26.8-63.27 40.124-19.99 8.082-36.54 11.026-52.54 13.871-18.82 3.345-36.59 6.505-59.11 17.614-13.3 6.562-25.89 14.75-37.5 24.384a219.988 219.988 0 0 0 37.39 7.171c6.53.672 20.03 1.652 37 .679a246.995 246.995 0 0 0 40.73-5.771 3.907 3.907 0 0 1 4.07 1.563 3.91 3.91 0 0 1 .1 4.358c-16.19 25.273-36.61 46.667-60.69 63.59-19.66 13.8-42.35 24.8-65.62 31.79-15.59 4.69-25.4 5.75-34.06 6.69-7.22.78-14.04 1.52-23.38 4.29-19.58 5.82-39.28 16.63-71.76 50.48-35.18 36.66-54.37 68.32-78.66 108.39-13.65 22.52-29.123 48.03-50.087 78.96a1393.59 1393.59 0 0 1-43.861 61.1c-.757 1-1.92 1.54-3.115 1.54a3.9 3.9 0 0 1-1.562-.32 3.92 3.92 0 0 1-2.287-4.26c8.379-47.76 20.442-95.42 35.854-141.66 13.776-41.34 42.445-127.35 99.868-221.65 71.29-117.076 162.33-206.313 270.61-265.236 51.38-27.959 107.49-49.26 166.78-63.309a3.905 3.905 0 0 1 4.78 3.343c4.34 36.536 8.18 127.438-49.68 182.269Z" fill="#32F9FF"/></g><defs><linearGradient id="a" x1="227.865" y1="176.563" x2="1838.29" y2="2461.65" gradientUnits="userSpaceOnUse"><stop offset=".283" stop-color="#0D171D"/><stop offset="1" stop-color="#22454B"/></linearGradient><linearGradient id="c" x1="746.155" y1="657.512" x2="1486.01" y2="1641.22" gradientUnits="userSpaceOnUse"><stop offset=".283" stop-color="#0D171D"/><stop offset="1" stop-color="#22454B"/></linearGradient><filter id="b" x="575" y="570" width="1032.46" height="1028.03" filterUnits="userSpaceOnUse" color-interpolation-filters="sRGB"><feFlood flood-opacity="0" result="BackgroundImageFix"/><feColorMatrix in="SourceAlpha" values="0 0 0 0 0 0 0 0 0 0 0 0 0 0 0 0 0 0 127 0" result="hardAlpha"/><feOffset dx="-67" dy="58"/><feComposite in2="hardAlpha" operator="out"/><feColorMatrix values="0 0 0 0 0 0 0 0 0 0 0 0 0 0 0 0 0 0 1 0"/><feBlend in2="BackgroundImageFix" result="effect1_dropShadow_740_477"/><feBlend in="SourceGraphic" in2="effect1_dropShadow_740_477" result="shape"/></filter></defs></svg>