<svg width="92" height="92" viewBox="0 0 92 92" fill="none" xmlns="http://www.w3.org/2000/svg">
    <rect width="92" height="92" rx="46" fill="#FF4500"/>
    <path d="M69 46.4a5 5 0 01-2.8 4.6 9 9 0 010 1.5c0 7.6-9 13.9-20.1 13.9-11.1 0-20.2-6.3-20.2-14a9.2 9.2 0 010-1.4 5 5 0 01-2.8-5.4 5 5 0 014.4-4.1 5 5 0 014 1.3A24.8 24.8 0 0145 38.6l2.5-11.9a1 1 0 01.5-.7 1.1 1.1 0 01.8-.1l8.5 1.7c.8-1.5 2.6-2.1 4.2-1.5a3.4 3.4 0 01-1.4 6.6c-1.7 0-3.1-1.4-3.3-3L49.4 28l-2.2 10.7A24.7 24.7 0 0160.5 43a5 5 0 018.5 3.4zm-34.3 4.8a3.4 3.4 0 003.2 2c1.4 0 2.7-.8 3.2-2 .5-1.3.2-2.8-.7-3.8-1-1-2.5-1.2-3.8-.7a3.4 3.4 0 00-1.9 4.5zm19.8 8.2a1 1 0 00-.6-1.6c-.3 0-.5 0-.7.2a11.3 11.3 0 01-7.2 2.1 11.4 11.4 0 01-7.2-2.1 1 1 0 00-1.5.6c0 .3 0 .5.2.7a13.3 13.3 0 008.5 2.6 13.5 13.5 0 008.5-2.6zm-.6-5.9a3.5 3.5 0 003.2-2.2c.2-.4.3-.9.3-1.3 0-1.4-.9-2.7-2.2-3.2a3.5 3.5 0 00-3.7.8c-1 1-1.3 2.4-.8 3.7a3.5 3.5 0 003.2 2.1v.1z"
          fill="#fff"/>
</svg>
