<svg xmlns="http://www.w3.org/2000/svg" width="1000" height="1000"><path fill="#FF6718" d="M236 483h529v331c-3.632-.908-6.082-1.979-9.34-3.738l-3.187-1.717-3.41-1.857-3.542-1.919a1064.05 1064.05 0 0 1-23.487-13.164c-10.449-6.016-21.006-11.837-31.554-17.677a12688.87 12688.87 0 0 1-58.564-32.657 40726.485 40726.485 0 0 0-12.396-6.949 6537.955 6537.955 0 0 0-23.145-12.885 3406.522 3406.522 0 0 1-27.677-15.525c-8.463-4.792-16.962-9.517-25.469-14.232a3426.6 3426.6 0 0 1-17.217-9.602l-3.41-1.916a4722.626 4722.626 0 0 1-6.383-3.595 415.868 415.868 0 0 0-5.693-3.145C508 672 508 672 505.91 670.53c-2.055-1.348-3.48-2.133-5.91-2.529-4.076 1.15-7.465 3.242-11.063 5.438l-3.186 1.836a647.264 647.264 0 0 0-6.554 3.836c-3.876 2.291-7.795 4.499-11.722 6.7-2.84 1.594-5.671 3.202-8.502 4.811-6.428 3.645-12.886 7.234-19.348 10.817-8.72 4.834-17.43 9.685-26.125 14.562a6213.9 6213.9 0 0 1-26.125 14.563c-8.312 4.61-16.606 9.25-24.875 13.937-9.409 5.334-18.854 10.599-28.313 15.844-7.572 4.2-15.134 8.42-22.687 12.656a6204.977 6204.977 0 0 1-26.125 14.563 3135.038 3135.038 0 0 0-28.604 16.05c-2.587 1.469-5.177 2.93-7.771 4.387l-3.027 1.703-3.004 1.668-2.737 1.525C238 814 238 814 236 814V483Z"/><path fill="#FF6618" d="M236 348h529v72H236v-72Z"/><path fill="#FF6718" d="M236 213h529v71H236v-71Z"/></svg>