<svg width="100" height="100" viewBox="0 0 100 100" fill="none" xmlns="http://www.w3.org/2000/svg">
    <g filter="url(#filter0_dd_1727_3677)">
        <rect x="4" width="92" height="92" rx="46" fill="#3CF"/>
        <path d="M72.8 31.4c-1.5.7-3 1.1-4.7 1.4.7-.1 1.9-1.5 2.3-2 .7-1 1.2-1.9 1.5-3 0 0 .1 0 0-.1a.3.3 0 00-.2 0 24 24 0 01-5.8 2.1h-.2l-.5-.6a9.4 9.4 0 00-6.9-2.4c-1.4 0-2.7.5-4 1a10.3 10.3 0 00-5 6.6c-.3 1.3-.3 2.7-.1 4 0 .3 0 .3-.2.3a30 30 0 01-19.4-9.9c-.2-.3-.4-.3-.5 0-2.3 3.5-1.2 9 1.6 11.6l1.2 1c-1.3 0-2.6-.4-3.7-1-.2-.1-.4 0-.4.2v1.1a10 10 0 007.4 8.3c-1.2.3-2.5.3-3.7.1-.2 0-.3.1-.2.4 1.6 4.3 5 5.7 7.6 6.4.4 0 .7 0 1.1.2-.8 1.4-3.9 2.3-5.3 2.8a18.7 18.7 0 01-8.6 1l.1.3 1.7 1A28.4 28.4 0 0061 58a29 29 0 007.6-21.1c0-.3.3-.5.5-.6 1.5-1.1 2.7-2.5 3.8-4 .2-.2.3-.4.2-.7 0-.2 0-.2-.2 0z"
              fill="#fff"/>
    </g>
    <defs>
        <filter id="filter0_dd_1727_3677" x="0" y="0" width="100" height="100" filterUnits="userSpaceOnUse"
                color-interpolation-filters="sRGB">
            <feFlood flood-opacity="0" result="BackgroundImageFix"/>
            <feColorMatrix in="SourceAlpha" values="0 0 0 0 0 0 0 0 0 0 0 0 0 0 0 0 0 0 127 0" result="hardAlpha"/>
            <feOffset dy="4"/>
            <feGaussianBlur stdDeviation="2"/>
            <feComposite in2="hardAlpha" operator="out"/>
            <feColorMatrix values="0 0 0 0 0 0 0 0 0 0 0 0 0 0 0 0 0 0 0.25 0"/>
            <feBlend in2="BackgroundImageFix" result="effect1_dropShadow_1727_3677"/>
            <feColorMatrix in="SourceAlpha" values="0 0 0 0 0 0 0 0 0 0 0 0 0 0 0 0 0 0 127 0" result="hardAlpha"/>
            <feOffset dy="4"/>
            <feGaussianBlur stdDeviation="2"/>
            <feComposite in2="hardAlpha" operator="out"/>
            <feColorMatrix values="0 0 0 0 0 0 0 0 0 0 0 0 0 0 0 0 0 0 0.25 0"/>
            <feBlend in2="effect1_dropShadow_1727_3677" result="effect2_dropShadow_1727_3677"/>
            <feBlend in="SourceGraphic" in2="effect2_dropShadow_1727_3677" result="shape"/>
        </filter>
    </defs>
</svg>
