<svg width="100" height="100" viewBox="0 0 100 100" fill="none" xmlns="http://www.w3.org/2000/svg">
    <g filter="url(#filter0_dd_1727_3677)">
        <rect x="4" width="91.5618" height="91.5618" rx="45.7809" fill="#33CCFF"/>
        <path d="M72.5055 31.2845C70.9937 31.9358 69.4043 32.3892 67.7766 32.6337C68.5376 32.5032 69.6573 31.1322 70.103 30.5773C70.7801 29.7403 71.2962 28.7847 71.6249 27.7592C71.6249 27.6831 71.701 27.5743 71.6249 27.5199C71.5866 27.4989 71.5436 27.4879 71.4999 27.4879C71.4562 27.4879 71.4133 27.4989 71.3749 27.5199C69.6075 28.4778 67.7265 29.2089 65.7764 29.696C65.7084 29.7168 65.6361 29.7186 65.5671 29.7014C65.4982 29.6841 65.4352 29.6484 65.385 29.5981C65.2332 29.4171 65.0698 29.2463 64.8958 29.0867C64.1004 28.3734 63.198 27.7896 62.2216 27.3566C60.9035 26.8154 59.4798 26.581 58.058 26.6712C56.6784 26.7584 55.3315 27.1287 54.101 27.7592C52.8893 28.424 51.8243 29.327 50.9701 30.4141C50.0716 31.533 49.423 32.8315 49.0677 34.2223C48.7748 35.5452 48.7416 36.9125 48.9699 38.2481C48.9699 38.4766 48.9699 38.5093 48.7742 38.4766C41.0232 37.3342 34.6637 34.5814 29.4674 28.6732C29.2391 28.4121 29.1195 28.4121 28.9347 28.6732C26.6736 32.1115 27.7715 37.5518 30.598 40.2393C30.9785 40.5983 31.3698 40.9465 31.7829 41.2729C30.487 41.1809 29.2228 40.8294 28.0651 40.2393C27.8476 40.0978 27.7281 40.174 27.7172 40.4351C27.6864 40.7972 27.6864 41.1612 27.7172 41.5232C27.944 43.2582 28.6272 44.9018 29.6968 46.2859C30.7664 47.67 32.1841 48.7449 33.8049 49.4008C34.2 49.5702 34.6117 49.6978 35.0333 49.7816C33.8336 50.018 32.6032 50.0547 31.3916 49.8904C31.1307 49.836 31.0328 49.9774 31.1307 50.2277C32.7287 54.5799 36.1965 55.9074 38.7403 56.6472C39.0882 56.7017 39.4361 56.7017 39.8274 56.7887C39.8274 56.7887 39.8274 56.7887 39.7622 56.854C39.0121 58.2249 35.9791 59.1498 34.5876 59.6285C32.0478 60.5416 29.3399 60.8906 26.6518 60.6513C26.2279 60.586 26.13 60.5969 26.0213 60.6513C25.9126 60.7057 26.0213 60.8254 26.1409 60.9342C26.6845 61.2933 27.228 61.6088 27.7933 61.9135C29.4762 62.8322 31.2553 63.562 33.0983 64.0896C42.643 66.7227 53.3835 64.7859 60.5475 57.6591C66.1786 52.0665 68.1571 44.3522 68.1571 36.6269C68.1571 36.3331 68.5159 36.1591 68.7224 36.0067C70.1471 34.8957 71.403 33.5836 72.4511 32.1115C72.6326 31.892 72.7257 31.6126 72.712 31.3281C72.712 31.1649 72.712 31.1975 72.5055 31.2845Z"
              fill="white"/>
    </g>
    <defs>
        <filter id="filter0_dd_1727_3677" x="0" y="0" width="99.5625" height="99.5615" filterUnits="userSpaceOnUse"
                color-interpolation-filters="sRGB">
            <feFlood flood-opacity="0" result="BackgroundImageFix"/>
            <feColorMatrix in="SourceAlpha" type="matrix" values="0 0 0 0 0 0 0 0 0 0 0 0 0 0 0 0 0 0 127 0"
                           result="hardAlpha"/>
            <feOffset dy="4"/>
            <feGaussianBlur stdDeviation="2"/>
            <feComposite in2="hardAlpha" operator="out"/>
            <feColorMatrix type="matrix" values="0 0 0 0 0 0 0 0 0 0 0 0 0 0 0 0 0 0 0.25 0"/>
            <feBlend mode="normal" in2="BackgroundImageFix" result="effect1_dropShadow_1727_3677"/>
            <feColorMatrix in="SourceAlpha" type="matrix" values="0 0 0 0 0 0 0 0 0 0 0 0 0 0 0 0 0 0 127 0"
                           result="hardAlpha"/>
            <feOffset dy="4"/>
            <feGaussianBlur stdDeviation="2"/>
            <feComposite in2="hardAlpha" operator="out"/>
            <feColorMatrix type="matrix" values="0 0 0 0 0 0 0 0 0 0 0 0 0 0 0 0 0 0 0.25 0"/>
            <feBlend mode="normal" in2="effect1_dropShadow_1727_3677" result="effect2_dropShadow_1727_3677"/>
            <feBlend mode="normal" in="SourceGraphic" in2="effect2_dropShadow_1727_3677" result="shape"/>
        </filter>
    </defs>
</svg>
