<svg width="1033" height="1029" viewBox="0 0 1033 1029" fill="none" xmlns="http://www.w3.org/2000/svg">
<g filter="url(#filter0_d_1565_734)">
<path d="M75.0004 570.383C75.0005 409.869 75.0007 128.473 75 105C74.9991 73.5 127.442 8.34077 199 8H901.5C923.281 8 955.901 15.381 979.999 32.5C1006.79 51.5346 1024 81.5711 1024 105V658.5C1030.17 712.341 973.071 773.492 925.5 775.5C877.929 777.508 591.5 775.5 591.5 775.5L307 955.5V784C307.042 779.542 305.843 777.843 301.999 776C298.155 774.157 239.999 775.5 185.5 775.5C131.001 775.5 75.0004 722.5 75.0004 677.5L75.0004 570.383Z" fill="url(#paint0_linear_1565_734)"/>
<path d="M303 955.5V962.764L309.139 958.88L592.646 779.508L594.701 779.522C596.811 779.536 599.912 779.557 603.875 779.582C611.8 779.633 623.176 779.704 636.975 779.782C664.573 779.939 701.867 780.127 740.648 780.253C818.141 780.504 901.766 780.505 925.669 779.497C950.939 778.43 978.048 761.815 997.914 739.069C1017.75 716.354 1031.16 686.626 1028 658.275V105C1028 79.9282 1009.85 48.7972 982.316 29.239C957.412 11.5483 923.939 4 901.5 4H199H198.991L198.981 4.00005C161.97 4.1763 130.053 21.1051 107.459 41.8702C96.1512 52.2621 87.0937 63.689 80.8401 74.6157C74.6326 85.4617 70.9997 96.147 71 105C71.0007 128.463 71.0005 409.645 71.0004 570.192V570.383L71.0004 677.5C71.0004 701.544 85.8444 727.038 107.126 746.338C128.47 765.695 157.012 779.5 185.5 779.5C203.078 779.5 221.06 779.36 237.457 779.233C246.484 779.163 255.03 779.096 262.765 779.059C273.679 779.006 282.969 779.011 289.761 779.144C293.162 779.21 295.887 779.307 297.855 779.44C298.844 779.507 299.585 779.579 300.099 779.652C300.29 779.679 300.418 779.701 300.494 779.716C302.028 780.475 302.43 780.929 302.586 781.174C302.74 781.414 303.018 782.018 303 783.963L303 783.981V784V955.5Z" stroke="url(#paint1_linear_1565_734)" stroke-width="8"/>
</g>
<mask id="mask0_1565_734" style="mask-type:luminance" maskUnits="userSpaceOnUse" x="172" y="89" width="755" height="697">
<path d="M173.035 89.2286H925.964V785.602H173.035V89.2286Z" fill="white" stroke="white" stroke-width="0.457238"/>
</mask>
<g mask="url(#mask0_1565_734)">
<path d="M328.6 290.971H328.371V291.199V411.807C328.371 418.16 323.221 423.311 316.869 423.311C310.517 423.311 305.366 418.16 305.366 411.807V291.199V290.971H305.138H184.538C178.186 290.971 173.035 285.82 173.035 279.467C173.035 273.115 178.186 267.964 184.538 267.964H305.138H305.366V267.736V147.128C305.366 140.775 310.517 135.624 316.869 135.624C323.221 135.624 328.371 140.775 328.371 147.128V267.736V267.964H328.6H449.2C455.554 267.964 460.702 273.115 460.702 279.467C460.702 285.82 455.554 290.971 449.2 290.971H328.6ZM661.67 370.654L661.335 370.932L661.753 371.05C674.04 374.526 686.597 376.936 699.182 378.229C705.726 378.901 719.236 379.883 736.225 378.908C749.926 378.124 763.643 376.18 776.994 373.132C778.452 372.799 779.966 373.381 780.825 374.604L781.012 374.472L780.825 374.604C781.686 375.826 781.72 377.447 780.914 378.707C764.748 403.955 744.348 425.327 720.284 442.231C700.65 456.022 677.986 467.004 654.736 473.992C639.163 478.671 629.367 479.733 620.715 480.671C613.492 481.453 606.657 482.196 597.3 484.974C577.664 490.805 557.932 501.642 525.437 535.51C490.24 572.196 471.039 603.866 446.743 643.939L446.742 643.942L446.723 643.972C433.077 666.48 417.614 691.983 396.664 722.89C382.567 743.692 367.811 764.247 352.81 783.98L352.992 784.118L352.81 783.98C352.097 784.92 351.003 785.435 349.877 785.435C349.383 785.435 348.882 785.335 348.406 785.127L348.315 785.336L348.406 785.127C346.849 784.446 345.959 782.789 346.254 781.116C354.63 733.373 366.691 685.724 382.099 639.492C395.874 598.158 424.536 512.163 481.941 417.889C553.213 300.844 644.232 211.637 752.471 152.736C803.829 124.786 859.921 103.493 919.192 89.4476L919.192 89.4476C920.212 89.2055 921.29 89.4106 922.151 90.0108C923.011 90.6128 923.572 91.5529 923.697 92.5958C925.863 110.852 927.904 142.688 922.178 176.804C916.452 210.922 902.963 247.302 874.085 274.671C866.051 282.286 843.806 301.44 810.888 314.75C790.92 322.822 774.391 325.762 758.385 328.607L758.383 328.608C739.565 331.953 721.768 335.117 699.219 346.242C685.898 352.812 673.295 361.009 661.67 370.654Z" fill="url(#paint2_linear_1565_734)" stroke="url(#paint3_linear_1565_734)" stroke-width="0.457238"/>
</g>
<defs>
<filter id="filter0_d_1565_734" x="0" y="0" width="1032.46" height="1028.03" filterUnits="userSpaceOnUse" color-interpolation-filters="sRGB">
<feFlood flood-opacity="0" result="BackgroundImageFix"/>
<feColorMatrix in="SourceAlpha" type="matrix" values="0 0 0 0 0 0 0 0 0 0 0 0 0 0 0 0 0 0 127 0" result="hardAlpha"/>
<feOffset dx="-67" dy="58"/>
<feComposite in2="hardAlpha" operator="out"/>
<feColorMatrix type="matrix" values="0 0 0 0 0.0758334 0 0 0 0 0.0758334 0 0 0 0 0.0758334 0 0 0 1 0"/>
<feBlend mode="normal" in2="BackgroundImageFix" result="effect1_dropShadow_1565_734"/>
<feBlend mode="normal" in="SourceGraphic" in2="effect1_dropShadow_1565_734" result="shape"/>
</filter>
<linearGradient id="paint0_linear_1565_734" x1="122.195" y1="-455.88" x2="1304.55" y2="-182.871" gradientUnits="userSpaceOnUse">
<stop stop-color="#23F9FF"/>
<stop offset="1" stop-color="#DBF1FF"/>
</linearGradient>
<linearGradient id="paint1_linear_1565_734" x1="171.155" y1="87.5123" x2="911.007" y2="1071.22" gradientUnits="userSpaceOnUse">
<stop offset="0.283072" stop-color="#0D171D"/>
<stop offset="1" stop-color="#22454B"/>
</linearGradient>
<linearGradient id="paint2_linear_1565_734" x1="249.098" y1="147.572" x2="780.193" y2="909.703" gradientUnits="userSpaceOnUse">
<stop offset="0.283072" stop-color="#0D171D"/>
<stop offset="1" stop-color="#22454B"/>
</linearGradient>
<linearGradient id="paint3_linear_1565_734" x1="549.468" y1="89.1196" x2="549.468" y2="785.663" gradientUnits="userSpaceOnUse">
<stop stop-color="#32F9FF" stop-opacity="0"/>
<stop offset="1" stop-color="#111F25"/>
</linearGradient>
</defs>
</svg>
